<svg id="Capa_1" data-name="Capa 1" xmlns="http://www.w3.org/2000/svg" viewBox="0 0 61.05 30.79"><defs><style>.cls-1{font-size:20px;font-family:Montserrat-Bold, Montserrat;font-weight:700;}.cls-1,.cls-4{fill:#fff;}.cls-2{letter-spacing:0em;}.cls-3{fill:#f29100;}.cls-5{fill:#f9bf79;}</style></defs><title>logo elegido</title><text class="cls-1" transform="translate(7.55 25.61)"><tspan class="cls-2">n</tspan><tspan x="13.9" y="0">elar</tspan></text><path class="cls-3" d="M562.75,490.64a2.84,2.84,0,0,1-2.83,3.06c-1.56,0-4.39-2.95-2.83-3.06,4.34-.3,1.49-4.2,2.95-3.39C561.78,488.22,562.56,488.93,562.75,490.64Z" transform="translate(-556.63 -487.14)"/><rect class="cls-4" x="2.06" y="10.77" width="3.66" height="15.02"/><path class="cls-5" d="M564.19,493.38a3.43,3.43,0,0,1-3.55,3.05c-1.95,0-3.54-1.25-3.54-2.79,0-1.32,3.77,2.45,5.06-.54C563.57,489.85,564.19,491.84,564.19,493.38Z" transform="translate(-556.63 -487.14)"/></svg>